<svg t="1748425277079" class="icon" viewBox="0 0 1024 1024" version="1.1" xmlns="http://www.w3.org/2000/svg" p-id="37042" width="200" height="200"><path d="M889.585778 349.710222a25.784889 25.784889 0 0 1-9.6 35.171556l-82.773334 47.943111-25.486222-44.757333 79.644445-47.943112a40.248889 40.248889 0 0 1 19.100444-3.2 29.255111 29.255111 0 0 1 19.114667 12.785778z m-758.144 0c3.768889-5.902222 9.358222-10.382222 15.928889-12.8a21.006222 21.006222 0 0 1 19.100444 3.214222l79.658667 47.943112-25.486222 44.757333-79.644445-47.943111a25.784889 25.784889 0 0 1-9.6-35.171556h0.042667z m159.288889-159.857778c6.001778-2.588444 12.558222-3.697778 19.100444-3.185777 6.556444 2.389333 12.16 6.883556 15.928889 12.785777l47.786667 79.928889-44.600889 25.571556-47.786667-79.928889a25.784889 25.784889 0 0 1 9.614222-35.157333h-0.056889zM513.436444 128a31.331556 31.331556 0 0 1 30.890667 26.695111v92.714667h-59.52v-92.714667C481.621333 141.895111 497.493333 128 513.422222 128z m213.703112 61.866667a25.784889 25.784889 0 0 1 9.6 35.157333l-47.786667 79.928889-44.586667-25.571556 47.786667-79.928889c4.465778-5.205333 9.870222-9.543111 15.928889-12.8 6.357333 0 15.928889 0 19.100444 3.214223h-0.042666z m-197.546667 236.515555l-130.616889 216.974222h105.130667l-25.500445 153.998223 136.860445-213.674667h-111.36l25.486222-157.297778zM300.245333 835.384889h-54.641777V583.04c1.28-145.706667 119.736889-262.926222 264.888888-262.144a259.726222 259.726222 0 0 1 184.888889 76.515556 261.674667 261.674667 0 0 1 76.174223 185.6v252.359111H300.231111v0.014222z m-143.36 0h710.428445A31.388444 31.388444 0 0 1 896 867.228444a28.757333 28.757333 0 0 1-8.391111 20.366223c-5.376 5.404444-12.672 8.433778-20.295111 8.405333h-710.4a28.501333 28.501333 0 0 1-20.309334-8.391111 28.728889 28.728889 0 0 1-8.362666-20.380445 31.388444 31.388444 0 0 1 28.672-31.843555" p-id="37043" fill="#d81e06"></path></svg>