<svg t="1748427955364" class="icon" viewBox="0 0 1024 1024" version="1.1" xmlns="http://www.w3.org/2000/svg" p-id="70179" width="200" height="200"><path d="M164.26496 164.864C242.688 86.144 379.392 78.29504 522.496 141.056c23.46496 10.28608 42.19392 29.10208 53.03296 52.352v0.08704c15.488 32 62.76096 53.248 98.048 17.87904 43.94496-44.16 8.32-106.19904-43.95008-104.36096l-2.22208 0.128a154.5728 154.5728 0 0 1-72.57088-13.77792C386.56 16.42496 221.39904 27.21792 124.24704 124.672-3.03104 252.37504 20.736 494.76096 180.736 701.10208a28.24192 28.24192 0 0 0 39.6288 5.0176l0.09728-0.07168a28.45184 28.45184 0 0 0 4.94592-39.84896c-142.208-183.38304-167.936-394.24-61.14304-501.33504z m804.26496 428.32896c-24.192-120.87296-93.52192-243.584-195.10784-345.55904a766.23872 766.23872 0 0 0-21.59104-20.82304c-10.03008-9.38496-25.43104-11.21792-36.52096-3.11296a28.49792 28.49792 0 0 0-2.78016 43.94496c6.99904 6.57408 14.03904 13.312 20.82304 20.14208 93.86496 94.16704 157.65504 206.592 179.71712 316.58496 21.20192 105.82016 0.93696 196.18304-57.18016 254.46912-51.61984 51.79392-130.56 73.97888-222.28992 62.45888-76.49792-9.6-157.696-41.90208-233.51296-92.288-23.20896-15.44192-36.05504-40.73984-42.57792-67.88096-6.272-26.368-30.848-48.30208-53.888-49.36704-37.54496-1.70496-70.95296 20.78208-69.84704 64 0.68096 24.87296 16 52.43392 65.664 65.06496 34.51904 8.79104 60.75904 29.91104 68.52096 35.11296 104.192 69.63712 214.10304 105.38496 311.89504 105.38496 85.03296 0 160.97792-27.00288 216.11008-82.34496 71.88992-72.10496 97.70496-180.736 72.61696-305.792h-0.0512z" fill="#2B85FB" p-id="70180"></path><path d="M648.27904 635.648H579.84L453.97504 474.79296v160.85504h-68.352V372.95104h68.43904l125.86496 160.68096V372.95104h68.39296v262.70208h-0.04096z m33.70496-299.17696C530.86208 185.6 333.13792 138.40896 240.30208 231.08096c-92.8 92.672-45.568 290.13504 105.51296 441.04704 151.12704 150.912 348.88704 198.06208 441.68704 105.38496 92.83584-92.672 45.568-290.13504-105.51808-441.04192z" fill="#2B85FB" p-id="70181"></path></svg>